DN Condensed Capital Serif.ufo
<glyph name="A" format="2">
	<advance width="656"/>
	<unicode hex="0041"/>
	<outline>
		<contour>
			<point x="88" y="63" type="line"/>
			<point x="165" y="63" type="line"/>
			<point x="348" y="709" type="line"/>
			<point x="296" y="709" type="line"/>
			<point x="480" y="63" type="line"/>
			<point x="573" y="63" type="line"/>
			<point x="352" y="785" type="line"/>
			<point x="308" y="785" type="line"/>
		</contour>
		<contour>
			<point x="641" y="19" type="line"/>
			<point x="573" y="63" type="line"/>
			<point x="480" y="63" type="line"/>
			<point x="408" y="19" type="line"/>
			<point x="418" y="0" type="line"/>
			<point x="528" y="10" type="line"/>
			<point x="631" y="0" type="line"/>
		</contour>
		<contour>
			<point x="235" y="19" type="line"/>
			<point x="167" y="63" type="line"/>
			<point x="87" y="63" type="line"/>
			<point x="15" y="19" type="line"/>
			<point x="25" y="0" type="line"/>
			<point x="125" y="10" type="line"/>
			<point x="225" y="0" type="line"/>
		</contour>
		<contour>
			<point x="179" y="221" type="line"/>
			<point x="179" y="166" type="line"/>
			<point x="475" y="166" type="line"/>
			<point x="475" y="221" type="line"/>
		</contour>
	</outline>
</glyph>
<glyph name="B" format="2">
	<advance width="486"/>
	<unicode hex="0042"/>
	<outline>
		<contour>
			<point x="149" y="720" type="line"/>
			<point x="246" y="720" type="line"/>
			<point x="246" y="775" type="line"/>
			<point x="149" y="775" type="line"/>
		</contour>
		<contour>
			<point x="30" y="766" type="line"/>
			<point x="98" y="722" type="line"/>
			<point x="178" y="722" type="line"/>
			<point x="140" y="775" type="line"/>
			<point x="40" y="785" type="line"/>
		</contour>
		<contour>
			<point x="98" y="775" type="line"/>
			<point x="98" y="0" type="line"/>
			<point x="178" y="0" type="line"/>
			<point x="178" y="775" type="line"/>
		</contour>
		<contour>
			<point x="351" y="504" type="line"/>
			<point x="431" y="528" type="line"/>
			<point x="431" y="575" type="line"/>
			<point x="351" y="600" type="line"/>
		</contour>
		<contour>
			<point x="231" y="775" type="curve"/>
			<point x="231" y="720" type="line"/>
			<point x="309" y="720"/>
			<point x="351" y="678"/>
			<point x="351" y="599" type="curve"/>
			<point x="431" y="574" type="line"/>
			<point x="431" y="705"/>
			<point x="361" y="775"/>
		</contour>
		<contour>
			<point x="231" y="384" type="curve"/>
			<point x="231" y="339" type="line"/>
			<point x="361" y="339"/>
			<point x="431" y="406"/>
			<point x="431" y="530" type="curve"/>
			<point x="351" y="505" type="line"/>
			<point x="351" y="426"/>
			<point x="309" y="384"/>
		</contour>
		<contour>
			<point x="30" y="9" type="line"/>
			<point x="40" y="-10" type="line"/>
			<point x="140" y="0" type="line"/>
			<point x="178" y="53" type="line"/>
			<point x="98" y="53" type="line"/>
		</contour>
		<contour>
			<point x="169" y="55" type="line"/>
			<point x="169" y="0" type="line"/>
			<point x="266" y="0" type="line"/>
			<point x="266" y="55" type="line"/>
		</contour>
		<contour>
			<point x="169" y="329" type="line"/>
			<point x="266" y="329" type="line"/>
			<point x="266" y="384" type="line"/>
			<point x="169" y="384" type="line"/>
		</contour>
		<contour>
			<point x="386" y="166" type="line"/>
			<point x="466" y="191" type="line"/>
			<point x="466" y="193" type="line"/>
			<point x="386" y="218" type="line"/>
		</contour>
		<contour>
			<point x="266" y="374" type="curve"/>
			<point x="266" y="329" type="line"/>
			<point x="344" y="329"/>
			<point x="386" y="287"/>
			<point x="386" y="218" type="curve"/>
			<point x="466" y="193" type="line"/>
			<point x="466" y="307"/>
			<point x="396" y="374"/>
		</contour>
		<contour>
			<point x="266" y="55" type="curve"/>
			<point x="266" y="0" type="line"/>
			<point x="396" y="0"/>
			<point x="466" y="70"/>
			<point x="466" y="191" type="curve"/>
			<point x="386" y="166" type="line"/>
			<point x="386" y="97"/>
			<point x="344" y="55"/>
		</contour>
	</outline>
</glyph>
<glyph name="C" format="2">
	<advance width="475"/>
	<unicode hex="0043"/>
	<outline>
		<contour>
			<point x="54" y="180" type="line"/>
			<point x="134" y="161" type="line"/>
			<point x="134" y="614" type="line"/>
			<point x="54" y="594" type="line"/>
		</contour>
		<contour>
			<point x="98" y="239" type="line"/>
			<point x="168" y="349" type="line"/>
			<point x="98" y="459" type="line"/>
			<point x="79" y="449" type="line"/>
			<point x="89" y="349" type="line"/>
			<point x="79" y="249" type="line"/>
		</contour>
		<contour>
			<point x="90" y="239" type="line"/>
			<point x="109" y="249" type="line"/>
			<point x="99" y="349" type="line"/>
			<point x="109" y="449" type="line"/>
			<point x="90" y="459" type="line"/>
			<point x="20" y="349" type="line"/>
		</contour>
		<contour>
			<point x="383" y="594" type="curve"/>
			<point x="425" y="600" type="line"/>
			<point x="425" y="727"/>
			<point x="367" y="795"/>
			<point x="255" y="795" type="curve" smooth="yes"/>
			<point x="123" y="795"/>
			<point x="54" y="725"/>
			<point x="54" y="594" type="curve"/>
			<point x="134" y="614" type="line"/>
			<point x="134" y="693"/>
			<point x="175" y="735"/>
			<point x="255" y="735" type="curve" smooth="yes"/>
			<point x="336" y="735"/>
			<point x="383" y="686"/>
		</contour>
		<contour>
			<point x="383" y="595" type="line"/>
			<point x="445" y="600" type="line"/>
			<point x="455" y="776" type="line"/>
			<point x="420" y="785" type="line"/>
			<point x="390" y="703" type="line"/>
			<point x="399" y="663" type="line"/>
		</contour>
		<contour>
			<point x="425" y="175" type="curve"/>
			<point x="383" y="181" type="line"/>
			<point x="383" y="89"/>
			<point x="336" y="40"/>
			<point x="255" y="40" type="curve" smooth="yes"/>
			<point x="175" y="40"/>
			<point x="134" y="82"/>
			<point x="134" y="161" type="curve"/>
			<point x="54" y="181" type="line"/>
			<point x="54" y="50"/>
			<point x="123" y="-20"/>
			<point x="255" y="-20" type="curve" smooth="yes"/>
			<point x="367" y="-20"/>
			<point x="425" y="48"/>
		</contour>
		<contour>
			<point x="383" y="180" type="line"/>
			<point x="399" y="112" type="line"/>
			<point x="390" y="72" type="line"/>
			<point x="420" y="-10" type="line"/>
			<point x="455" y="-1" type="line"/>
			<point x="445" y="175" type="line"/>
		</contour>
	</outline>
</glyph>
<glyph name="D" format="2">
	<advance width="525"/>
	<unicode hex="0044"/>
	<outline>
		<contour>
			<point x="149" y="55" type="line"/>
			<point x="149" y="0" type="line"/>
			<point x="271" y="0" type="line"/>
			<point x="271" y="55" type="line"/>
		</contour>
		<contour>
			<point x="30" y="9" type="line"/>
			<point x="40" y="-10" type="line"/>
			<point x="140" y="0" type="line"/>
			<point x="178" y="53" type="line"/>
			<point x="98" y="53" type="line"/>
		</contour>
		<contour>
			<point x="149" y="720" type="line"/>
			<point x="271" y="720" type="line"/>
			<point x="271" y="775" type="line"/>
			<point x="149" y="775" type="line"/>
		</contour>
		<contour>
			<point x="30" y="766" type="line"/>
			<point x="98" y="722" type="line"/>
			<point x="178" y="722" type="line"/>
			<point x="140" y="775" type="line"/>
			<point x="40" y="785" type="line"/>
		</contour>
		<contour>
			<point x="98" y="775" type="line"/>
			<point x="98" y="0" type="line"/>
			<point x="178" y="0" type="line"/>
			<point x="178" y="775" type="line"/>
		</contour>
		<contour>
			<point x="391" y="176" type="line"/>
			<point x="471" y="200" type="line"/>
			<point x="471" y="575" type="line"/>
			<point x="391" y="600" type="line"/>
		</contour>
		<contour>
			<point x="271" y="775" type="curve"/>
			<point x="271" y="720" type="line"/>
			<point x="349" y="720"/>
			<point x="391" y="678"/>
			<point x="391" y="599" type="curve"/>
			<point x="471" y="574" type="line"/>
			<point x="471" y="705"/>
			<point x="401" y="775"/>
		</contour>
		<contour>
			<point x="271" y="55" type="curve"/>
			<point x="271" y="0" type="line"/>
			<point x="401" y="0"/>
			<point x="471" y="70"/>
			<point x="471" y="201" type="curve"/>
			<point x="391" y="176" type="line"/>
			<point x="391" y="97"/>
			<point x="349" y="55"/>
		</contour>
		<contour>
			<point x="435" y="239" type="line"/>
			<point x="505" y="349" type="line"/>
			<point x="435" y="459" type="line"/>
			<point x="416" y="449" type="line"/>
			<point x="426" y="349" type="line"/>
			<point x="416" y="249" type="line"/>
		</contour>
		<contour>
			<point x="427" y="239" type="line"/>
			<point x="446" y="249" type="line"/>
			<point x="436" y="349" type="line"/>
			<point x="446" y="449" type="line"/>
			<point x="427" y="459" type="line"/>
			<point x="357" y="349" type="line"/>
		</contour>
	</outline>
</glyph>
<glyph name="E" format="2">
	<advance width="495"/>
	<unicode hex="0045"/>
	<outline>
		<contour>
			<point x="98" y="775" type="line"/>
			<point x="98" y="0" type="line"/>
			<point x="178" y="0" type="line"/>
			<point x="178" y="775" type="line"/>
		</contour>
		<contour>
			<point x="149" y="55" type="line"/>
			<point x="149" y="0" type="line"/>
			<point x="455" y="0" type="line"/>
			<point x="455" y="55" type="line"/>
		</contour>
		<contour>
			<point x="30" y="9" type="line"/>
			<point x="40" y="-10" type="line"/>
			<point x="140" y="0" type="line"/>
			<point x="178" y="53" type="line"/>
			<point x="98" y="53" type="line"/>
		</contour>
		<contour>
			<point x="149" y="720" type="line"/>
			<point x="435" y="720" type="line"/>
			<point x="435" y="775" type="line"/>
			<point x="149" y="775" type="line"/>
		</contour>
		<contour>
			<point x="30" y="766" type="line"/>
			<point x="98" y="722" type="line"/>
			<point x="178" y="722" type="line"/>
			<point x="140" y="775" type="line"/>
			<point x="40" y="785" type="line"/>
		</contour>
		<contour>
			<point x="363" y="775" type="line"/>
			<point x="363" y="720" type="line"/>
			<point x="407" y="594" type="line"/>
			<point x="445" y="604" type="line"/>
			<point x="435" y="775" type="line"/>
		</contour>
		<contour>
			<point x="149" y="363" type="line"/>
			<point x="149" y="308" type="line"/>
			<point x="327" y="308" type="line"/>
			<point x="327" y="363" type="line"/>
		</contour>
		<contour>
			<point x="308" y="200" type="line"/>
			<point x="337" y="210" type="line"/>
			<point x="327" y="335" type="line"/>
			<point x="337" y="465" type="line"/>
			<point x="308" y="475" type="line"/>
			<point x="264" y="363" type="line"/>
			<point x="264" y="308" type="line"/>
		</contour>
		<contour>
			<point x="363" y="775" type="line"/>
			<point x="363" y="720" type="line"/>
			<point x="407" y="594" type="line"/>
			<point x="445" y="604" type="line"/>
			<point x="435" y="775" type="line"/>
		</contour>
		<contour>
			<point x="383" y="0" type="line"/>
			<point x="455" y="0" type="line"/>
			<point x="465" y="169" type="line"/>
			<point x="427" y="179" type="line"/>
			<point x="383" y="54" type="line"/>
		</contour>
	</outline>
</glyph>
<glyph name="F" format="2">
	<advance width="485"/>
	<unicode hex="0046"/>
	<outline>
		<contour>
			<point x="98" y="775" type="line"/>
			<point x="98" y="0" type="line"/>
			<point x="178" y="0" type="line"/>
			<point x="178" y="775" type="line"/>
		</contour>
		<contour>
			<point x="30" y="766" type="line"/>
			<point x="98" y="722" type="line"/>
			<point x="178" y="722" type="line"/>
			<point x="140" y="775" type="line"/>
			<point x="40" y="785" type="line"/>
		</contour>
		<contour>
			<point x="373" y="775" type="line"/>
			<point x="373" y="720" type="line"/>
			<point x="417" y="594" type="line"/>
			<point x="455" y="604" type="line"/>
			<point x="445" y="775" type="line"/>
		</contour>
		<contour>
			<point x="149" y="363" type="line"/>
			<point x="149" y="308" type="line"/>
			<point x="337" y="308" type="line"/>
			<point x="337" y="363" type="line"/>
		</contour>
		<contour>
			<point x="318" y="200" type="line"/>
			<point x="347" y="210" type="line"/>
			<point x="337" y="335" type="line"/>
			<point x="347" y="465" type="line"/>
			<point x="318" y="475" type="line"/>
			<point x="274" y="363" type="line"/>
			<point x="274" y="308" type="line"/>
		</contour>
		<contour>
			<point x="149" y="720" type="line"/>
			<point x="445" y="720" type="line"/>
			<point x="445" y="775" type="line"/>
			<point x="149" y="775" type="line"/>
		</contour>
		<contour>
			<point x="30" y="9" type="line"/>
			<point x="40" y="-10" type="line"/>
			<point x="140" y="0" type="line"/>
			<point x="240" y="-10" type="line"/>
			<point x="250" y="9" type="line"/>
			<point x="178" y="53" type="line"/>
			<point x="98" y="53" type="line"/>
		</contour>
	</outline>
</glyph>
<glyph name="H" format="2">
	<advance width="601"/>
	<unicode hex="0048"/>
	<outline>
		<contour>
			<point x="98" y="775" type="line"/>
			<point x="98" y="0" type="line"/>
			<point x="178" y="0" type="line"/>
			<point x="178" y="775" type="line"/>
		</contour>
		<contour>
			<point x="419" y="775" type="line"/>
			<point x="419" y="0" type="line"/>
			<point x="499" y="0" type="line"/>
			<point x="499" y="775" type="line"/>
		</contour>
		<contour>
			<point x="149" y="363" type="line"/>
			<point x="149" y="308" type="line"/>
			<point x="445" y="308" type="line"/>
			<point x="445" y="363" type="line"/>
		</contour>
		<contour>
			<point x="30" y="9" type="line"/>
			<point x="40" y="-10" type="line"/>
			<point x="140" y="0" type="line"/>
			<point x="240" y="-10" type="line"/>
			<point x="250" y="9" type="line"/>
			<point x="178" y="53" type="line"/>
			<point x="98" y="53" type="line"/>
		</contour>
		<contour>
			<point x="351" y="9" type="line"/>
			<point x="361" y="-10" type="line"/>
			<point x="461" y="0" type="line"/>
			<point x="561" y="-10" type="line"/>
			<point x="571" y="9" type="line"/>
			<point x="499" y="53" type="line"/>
			<point x="419" y="53" type="line"/>
		</contour>
		<contour>
			<point x="30" y="766" type="line"/>
			<point x="98" y="722" type="line"/>
			<point x="178" y="722" type="line"/>
			<point x="250" y="766" type="line"/>
			<point x="240" y="785" type="line"/>
			<point x="140" y="775" type="line"/>
			<point x="40" y="785" type="line"/>
		</contour>
		<contour>
			<point x="351" y="766" type="line"/>
			<point x="419" y="722" type="line"/>
			<point x="499" y="722" type="line"/>
			<point x="571" y="766" type="line"/>
			<point x="561" y="785" type="line"/>
			<point x="461" y="775" type="line"/>
			<point x="361" y="785" type="line"/>
		</contour>
	</outline>
</glyph>
<glyph name="I" format="2">
	<advance width="280"/>
	<unicode hex="0049"/>
	<outline>
		<contour>
			<point x="98" y="775" type="line"/>
			<point x="98" y="0" type="line"/>
			<point x="178" y="0" type="line"/>
			<point x="178" y="775" type="line"/>
		</contour>
		<contour>
			<point x="30" y="9" type="line"/>
			<point x="40" y="-10" type="line"/>
			<point x="140" y="0" type="line"/>
			<point x="240" y="-10" type="line"/>
			<point x="250" y="9" type="line"/>
			<point x="178" y="53" type="line"/>
			<point x="98" y="53" type="line"/>
		</contour>
		<contour>
			<point x="30" y="766" type="line"/>
			<point x="98" y="722" type="line"/>
			<point x="178" y="722" type="line"/>
			<point x="250" y="766" type="line"/>
			<point x="240" y="785" type="line"/>
			<point x="140" y="775" type="line"/>
			<point x="40" y="785" type="line"/>
		</contour>
	</outline>
</glyph>
<glyph name="J" format="2">
	<advance width="332"/>
	<unicode hex="004A"/>
	<outline>
		<contour>
			<point x="150" y="151" type="line"/>
			<point x="230" y="180" type="line"/>
			<point x="230" y="744" type="line"/>
			<point x="150" y="744" type="line"/>
		</contour>
		<contour>
			<point x="230" y="181" type="curve"/>
			<point x="150" y="151" type="line"/>
			<point x="150" y="72"/>
			<point x="108" y="30"/>
			<point x="30" y="30" type="curve"/>
			<point x="30" y="-20" type="line"/>
			<point x="160" y="-20"/>
			<point x="230" y="50"/>
		</contour>
		<contour>
			<point x="82" y="766" type="line"/>
			<point x="150" y="722" type="line"/>
			<point x="230" y="722" type="line"/>
			<point x="302" y="766" type="line"/>
			<point x="292" y="785" type="line"/>
			<point x="192" y="775" type="line"/>
			<point x="92" y="785" type="line"/>
		</contour>
	</outline>
</glyph>
<glyph name="K" format="2">
	<advance width="615"/>
	<unicode hex="004B"/>
	<outline>
		<contour>
			<point x="98" y="775" type="line"/>
			<point x="98" y="0" type="line"/>
			<point x="178" y="0" type="line"/>
			<point x="178" y="775" type="line"/>
		</contour>
		<contour>
			<point x="30" y="9" type="line"/>
			<point x="40" y="-10" type="line"/>
			<point x="140" y="0" type="line"/>
			<point x="240" y="-10" type="line"/>
			<point x="250" y="9" type="line"/>
			<point x="178" y="53" type="line"/>
			<point x="98" y="53" type="line"/>
		</contour>
		<contour>
			<point x="30" y="766" type="line"/>
			<point x="98" y="722" type="line"/>
			<point x="178" y="722" type="line"/>
			<point x="250" y="766" type="line"/>
			<point x="240" y="785" type="line"/>
			<point x="140" y="775" type="line"/>
			<point x="40" y="785" type="line"/>
		</contour>
		<contour>
			<point x="418" y="53" type="line"/>
			<point x="513" y="53" type="line"/>
			<point x="284" y="448" type="line"/>
			<point x="220" y="400" type="line"/>
		</contour>
		<contour>
			<point x="350" y="9" type="line"/>
			<point x="360" y="-10" type="line"/>
			<point x="470" y="0" type="line"/>
			<point x="575" y="-10" type="line"/>
			<point x="585" y="9" type="line"/>
			<point x="513" y="53" type="line"/>
			<point x="423" y="53" type="line"/>
		</contour>
		<contour>
			<point x="468" y="722" type="line"/>
			<point x="391" y="722" type="line"/>
			<point x="131" y="267" type="line"/>
			<point x="127" y="221" type="line"/>
			<point x="171" y="221" type="line"/>
		</contour>
		<contour>
			<point x="321" y="766" type="line"/>
			<point x="389" y="722" type="line"/>
			<point x="469" y="722" type="line"/>
			<point x="541" y="766" type="line"/>
			<point x="531" y="785" type="line"/>
			<point x="431" y="775" type="line"/>
			<point x="331" y="785" type="line"/>
		</contour>
	</outline>
</glyph>
<glyph name="L" format="2">
	<advance width="475"/>
	<unicode hex="004C"/>
	<outline>
		<contour>
			<point x="98" y="775" type="line"/>
			<point x="98" y="0" type="line"/>
			<point x="178" y="0" type="line"/>
			<point x="178" y="775" type="line"/>
		</contour>
		<contour>
			<point x="149" y="55" type="line"/>
			<point x="149" y="0" type="line"/>
			<point x="445" y="0" type="line"/>
			<point x="445" y="55" type="line"/>
		</contour>
		<contour>
			<point x="30" y="9" type="line"/>
			<point x="40" y="-10" type="line"/>
			<point x="140" y="0" type="line"/>
			<point x="178" y="53" type="line"/>
			<point x="98" y="53" type="line"/>
		</contour>
		<contour>
			<point x="30" y="766" type="line"/>
			<point x="98" y="722" type="line"/>
			<point x="178" y="722" type="line"/>
			<point x="250" y="766" type="line"/>
			<point x="240" y="785" type="line"/>
			<point x="140" y="775" type="line"/>
			<point x="40" y="785" type="line"/>
		</contour>
		<contour>
			<point x="373" y="0" type="line"/>
			<point x="445" y="0" type="line"/>
			<point x="455" y="171" type="line"/>
			<point x="417" y="181" type="line"/>
			<point x="373" y="55" type="line"/>
		</contour>
	</outline>
</glyph>
<glyph name="M" format="2">
	<advance width="775"/>
	<unicode hex="004D"/>
	<outline>
		<contour>
			<point x="98" y="775" type="line"/>
			<point x="98" y="0" type="line"/>
			<point x="163" y="0" type="line"/>
			<point x="163" y="714" type="line"/>
		</contour>
		<contour>
			<point x="30" y="9" type="line"/>
			<point x="40" y="-10" type="line"/>
			<point x="133" y="0" type="line"/>
			<point x="225" y="-10" type="line"/>
			<point x="235" y="9" type="line"/>
			<point x="163" y="53" type="line"/>
			<point x="98" y="53" type="line"/>
		</contour>
		<contour>
			<point x="30" y="766" type="line"/>
			<point x="98" y="722" type="line"/>
			<point x="166" y="700" type="line"/>
			<point x="153" y="775" type="line"/>
			<point x="40" y="785" type="line"/>
		</contour>
		<contour>
			<point x="593" y="703" type="line"/>
			<point x="593" y="0" type="line"/>
			<point x="673" y="0" type="line"/>
			<point x="673" y="775" type="line"/>
		</contour>
		<contour>
			<point x="525" y="9" type="line"/>
			<point x="535" y="-10" type="line"/>
			<point x="635" y="0" type="line"/>
			<point x="735" y="-10" type="line"/>
			<point x="745" y="9" type="line"/>
			<point x="673" y="53" type="line"/>
			<point x="593" y="53" type="line"/>
		</contour>
		<contour>
			<point x="741" y="766" type="line"/>
			<point x="731" y="785" type="line"/>
			<point x="605" y="775" type="line"/>
			<point x="593" y="722" type="line"/>
			<point x="673" y="722" type="line"/>
		</contour>
		<contour>
			<point x="675" y="775" type="line"/>
			<point x="605" y="775" type="line"/>
			<point x="374" y="76" type="line"/>
			<point x="426" y="76" type="line"/>
			<point x="153" y="775" type="line"/>
			<point x="138" y="604" type="line"/>
			<point x="374" y="0" type="line"/>
			<point x="413" y="0" type="line"/>
		</contour>
	</outline>
</glyph>
<glyph name="N" format="2">
	<advance width="601"/>
	<unicode hex="004E"/>
	<outline>
		<contour>
			<point x="98" y="775" type="line"/>
			<point x="98" y="0" type="line"/>
			<point x="163" y="0" type="line"/>
			<point x="163" y="680" type="line"/>
		</contour>
		<contour>
			<point x="434" y="775" type="line"/>
			<point x="434" y="145" type="line"/>
			<point x="461" y="0" type="line"/>
			<point x="499" y="0" type="line"/>
			<point x="499" y="775" type="line"/>
		</contour>
		<contour>
			<point x="30" y="9" type="line"/>
			<point x="40" y="-10" type="line"/>
			<point x="133" y="0" type="line"/>
			<point x="225" y="-10" type="line"/>
			<point x="235" y="9" type="line"/>
			<point x="163" y="53" type="line"/>
			<point x="98" y="53" type="line"/>
		</contour>
		<contour>
			<point x="30" y="766" type="line"/>
			<point x="98" y="722" type="line"/>
			<point x="166" y="700" type="line"/>
			<point x="140" y="775" type="line"/>
			<point x="40" y="785" type="line"/>
		</contour>
		<contour>
			<point x="140" y="775" type="line"/>
			<point x="137" y="611" type="line"/>
			<point x="461" y="0" type="line"/>
			<point x="463" y="166" type="line"/>
		</contour>
		<contour>
			<point x="567" y="766" type="line"/>
			<point x="557" y="785" type="line"/>
			<point x="464" y="775" type="line"/>
			<point x="372" y="785" type="line"/>
			<point x="362" y="766" type="line"/>
			<point x="434" y="722" type="line"/>
			<point x="499" y="722" type="line"/>
		</contour>
	</outline>
</glyph>
<glyph name="O" format="2">
	<advance width="509"/>
	<unicode hex="004F"/>
	<outline>
		<contour>
			<point x="54" y="180" type="line"/>
			<point x="134" y="161" type="line"/>
			<point x="134" y="614" type="line"/>
			<point x="54" y="594" type="line"/>
		</contour>
		<contour>
			<point x="375" y="161" type="line"/>
			<point x="455" y="180" type="line"/>
			<point x="455" y="594" type="line"/>
			<point x="375" y="614" type="line"/>
		</contour>
		<contour>
			<point x="375" y="614" type="curve"/>
			<point x="455" y="594" type="line"/>
			<point x="455" y="725"/>
			<point x="385" y="795"/>
			<point x="255" y="795" type="curve" smooth="yes"/>
			<point x="124" y="795"/>
			<point x="54" y="725"/>
			<point x="54" y="594" type="curve"/>
			<point x="134" y="614" type="line"/>
			<point x="134" y="693"/>
			<point x="176" y="735"/>
			<point x="255" y="735" type="curve" smooth="yes"/>
			<point x="333" y="735"/>
			<point x="375" y="693"/>
		</contour>
		<contour>
			<point x="455" y="181" type="curve"/>
			<point x="375" y="161" type="line"/>
			<point x="375" y="82"/>
			<point x="333" y="40"/>
			<point x="255" y="40" type="curve" smooth="yes"/>
			<point x="176" y="40"/>
			<point x="134" y="82"/>
			<point x="134" y="161" type="curve"/>
			<point x="54" y="181" type="line"/>
			<point x="54" y="50"/>
			<point x="124" y="-20"/>
			<point x="255" y="-20" type="curve" smooth="yes"/>
			<point x="385" y="-20"/>
			<point x="455" y="50"/>
		</contour>
		<contour>
			<point x="98" y="239" type="line"/>
			<point x="168" y="349" type="line"/>
			<point x="98" y="459" type="line"/>
			<point x="79" y="449" type="line"/>
			<point x="89" y="349" type="line"/>
			<point x="79" y="249" type="line"/>
		</contour>
		<contour>
			<point x="90" y="239" type="line"/>
			<point x="109" y="249" type="line"/>
			<point x="99" y="349" type="line"/>
			<point x="109" y="449" type="line"/>
			<point x="90" y="459" type="line"/>
			<point x="20" y="349" type="line"/>
		</contour>
		<contour>
			<point x="419" y="239" type="line"/>
			<point x="489" y="349" type="line"/>
			<point x="419" y="459" type="line"/>
			<point x="400" y="449" type="line"/>
			<point x="410" y="349" type="line"/>
			<point x="400" y="249" type="line"/>
		</contour>
		<contour>
			<point x="411" y="239" type="line"/>
			<point x="430" y="249" type="line"/>
			<point x="420" y="349" type="line"/>
			<point x="430" y="449" type="line"/>
			<point x="411" y="459" type="line"/>
			<point x="341" y="349" type="line"/>
		</contour>
	</outline>
</glyph>
<glyph name="P" format="2">
	<advance width="476"/>
	<unicode hex="0050"/>
	<outline>
		<contour>
			<point x="149" y="324" type="line"/>
			<point x="149" y="269" type="line"/>
			<point x="256" y="269" type="line"/>
			<point x="256" y="324" type="line"/>
		</contour>
		<contour>
			<point x="149" y="720" type="line"/>
			<point x="256" y="720" type="line"/>
			<point x="256" y="775" type="line"/>
			<point x="149" y="775" type="line"/>
		</contour>
		<contour>
			<point x="30" y="766" type="line"/>
			<point x="98" y="722" type="line"/>
			<point x="178" y="722" type="line"/>
			<point x="140" y="775" type="line"/>
			<point x="40" y="785" type="line"/>
		</contour>
		<contour>
			<point x="98" y="775" type="line"/>
			<point x="98" y="0" type="line"/>
			<point x="178" y="0" type="line"/>
			<point x="178" y="775" type="line"/>
		</contour>
		<contour>
			<point x="376" y="444" type="line"/>
			<point x="456" y="468" type="line"/>
			<point x="456" y="575" type="line"/>
			<point x="376" y="600" type="line"/>
		</contour>
		<contour>
			<point x="256" y="775" type="curve"/>
			<point x="256" y="720" type="line"/>
			<point x="334" y="720"/>
			<point x="376" y="678"/>
			<point x="376" y="599" type="curve"/>
			<point x="456" y="574" type="line"/>
			<point x="456" y="705"/>
			<point x="386" y="775"/>
		</contour>
		<contour>
			<point x="256" y="324" type="curve"/>
			<point x="256" y="269" type="line"/>
			<point x="386" y="269"/>
			<point x="456" y="339"/>
			<point x="456" y="470" type="curve"/>
			<point x="376" y="445" type="line"/>
			<point x="376" y="366"/>
			<point x="334" y="324"/>
		</contour>
		<contour>
			<point x="30" y="9" type="line"/>
			<point x="40" y="-10" type="line"/>
			<point x="140" y="0" type="line"/>
			<point x="240" y="-10" type="line"/>
			<point x="250" y="9" type="line"/>
			<point x="178" y="53" type="line"/>
			<point x="98" y="53" type="line"/>
		</contour>
	</outline>
</glyph>
<glyph name="Q" format="2">
	<advance width="509"/>
	<unicode hex="0051"/>
	<outline>
		<component base="O"/>
		<contour>
			<point x="295" y="191" type="line"/>
			<point x="217" y="191" type="line"/>
			<point x="348" y="-97" type="line"/>
			<point x="429" y="-97" type="line"/>
		</contour>
	</outline>
</glyph>
<glyph name="R" format="2">
	<advance width="555"/>
	<unicode hex="0052"/>
	<outline>
		<contour>
			<point x="149" y="344" type="line"/>
			<point x="149" y="289" type="line"/>
			<point x="256" y="289" type="line"/>
			<point x="256" y="344" type="line"/>
		</contour>
		<contour>
			<point x="149" y="720" type="line"/>
			<point x="256" y="720" type="line"/>
			<point x="256" y="775" type="line"/>
			<point x="149" y="775" type="line"/>
		</contour>
		<contour>
			<point x="30" y="766" type="line"/>
			<point x="98" y="722" type="line"/>
			<point x="178" y="722" type="line"/>
			<point x="140" y="775" type="line"/>
			<point x="40" y="785" type="line"/>
		</contour>
		<contour>
			<point x="98" y="775" type="line"/>
			<point x="98" y="0" type="line"/>
			<point x="178" y="0" type="line"/>
			<point x="178" y="775" type="line"/>
		</contour>
		<contour>
			<point x="376" y="444" type="line"/>
			<point x="456" y="468" type="line"/>
			<point x="456" y="575" type="line"/>
			<point x="376" y="600" type="line"/>
		</contour>
		<contour>
			<point x="256" y="775" type="curve"/>
			<point x="256" y="720" type="line"/>
			<point x="334" y="720"/>
			<point x="376" y="678"/>
			<point x="376" y="599" type="curve"/>
			<point x="456" y="574" type="line"/>
			<point x="456" y="705"/>
			<point x="386" y="775"/>
		</contour>
		<contour>
			<point x="256" y="344" type="curve"/>
			<point x="256" y="289" type="line"/>
			<point x="386" y="289"/>
			<point x="456" y="359"/>
			<point x="456" y="490" type="curve"/>
			<point x="376" y="465" type="line"/>
			<point x="376" y="386"/>
			<point x="334" y="344"/>
		</contour>
		<contour>
			<point x="30" y="9" type="line"/>
			<point x="40" y="-10" type="line"/>
			<point x="140" y="0" type="line"/>
			<point x="240" y="-10" type="line"/>
			<point x="250" y="9" type="line"/>
			<point x="178" y="53" type="line"/>
			<point x="98" y="53" type="line"/>
		</contour>
		<contour>
			<point x="399" y="0" type="line"/>
			<point x="490" y="0" type="line"/>
			<point x="346" y="310" type="line"/>
			<point x="260" y="305" type="line"/>
		</contour>
		<contour>
			<point x="315" y="9" type="line"/>
			<point x="325" y="-10" type="line"/>
			<point x="425" y="0" type="line"/>
			<point x="525" y="-10" type="line"/>
			<point x="535" y="9" type="line"/>
			<point x="463" y="53" type="line"/>
			<point x="383" y="53" type="line"/>
		</contour>
	</outline>
</glyph>
<glyph name="S" format="2">
	<advance width="431"/>
	<unicode hex="0053"/>
	<outline>
		<contour>
			<point x="92" y="181" type="curve"/>
			<point x="50" y="175" type="line"/>
			<point x="50" y="48"/>
			<point x="108" y="-20"/>
			<point x="215" y="-20" type="curve" smooth="yes"/>
			<point x="342" y="-20"/>
			<point x="411" y="50"/>
			<point x="411" y="161" type="curve"/>
			<point x="321" y="151" type="line"/>
			<point x="321" y="82"/>
			<point x="290" y="40"/>
			<point x="215" y="40" type="curve" smooth="yes"/>
			<point x="139" y="40"/>
			<point x="92" y="89"/>
		</contour>
		<contour>
			<point x="125" y="624" type="curve"/>
			<point x="40" y="614" type="line"/>
			<point x="40" y="466"/>
			<point x="126" y="391"/>
			<point x="196" y="331" type="curve" smooth="yes"/>
			<point x="263" y="273"/>
			<point x="321" y="214"/>
			<point x="321" y="151" type="curve"/>
			<point x="411" y="161" type="line"/>
			<point x="411" y="260"/>
			<point x="321" y="342"/>
			<point x="247" y="409" type="curve" smooth="yes"/>
			<point x="185" y="466"/>
			<point x="125" y="526"/>
		</contour>
		<contour>
			<point x="339" y="595" type="curve"/>
			<point x="381" y="600" type="line"/>
			<point x="381" y="727"/>
			<point x="313" y="795"/>
			<point x="226" y="795" type="curve" smooth="yes"/>
			<point x="109" y="795"/>
			<point x="40" y="725"/>
			<point x="40" y="614" type="curve"/>
			<point x="125" y="624" type="line"/>
			<point x="125" y="693"/>
			<point x="161" y="735"/>
			<point x="226" y="735" type="curve" smooth="yes"/>
			<point x="292" y="735"/>
			<point x="339" y="687"/>
		</contour>
		<contour>
			<point x="92" y="181" type="line"/>
			<point x="30" y="175" type="line"/>
			<point x="20" y="0" type="line"/>
			<point x="55" y="-9" type="line"/>
			<point x="85" y="73" type="line"/>
			<point x="76" y="113" type="line"/>
		</contour>
		<contour>
			<point x="339" y="595" type="line"/>
			<point x="401" y="600" type="line"/>
			<point x="411" y="776" type="line"/>
			<point x="376" y="785" type="line"/>
			<point x="346" y="703" type="line"/>
			<point x="355" y="663" type="line"/>
		</contour>
	</outline>
</glyph>
<glyph name="T" format="2">
	<advance width="548"/>
	<unicode hex="0054"/>
	<outline>
		<contour>
			<point x="234" y="775" type="line"/>
			<point x="234" y="0" type="line"/>
			<point x="314" y="0" type="line"/>
			<point x="314" y="775" type="line"/>
		</contour>
		<contour>
			<point x="164" y="9" type="line"/>
			<point x="174" y="-10" type="line"/>
			<point x="274" y="0" type="line"/>
			<point x="374" y="-10" type="line"/>
			<point x="384" y="9" type="line"/>
			<point x="312" y="53" type="line"/>
			<point x="232" y="53" type="line"/>
		</contour>
		<contour>
			<point x="40" y="730" type="line"/>
			<point x="274" y="720" type="line"/>
			<point x="508" y="730" type="line"/>
			<point x="508" y="785" type="line"/>
			<point x="274" y="775" type="line"/>
			<point x="40" y="785" type="line"/>
		</contour>
		<contour>
			<point x="436" y="765" type="line"/>
			<point x="436" y="730" type="line"/>
			<point x="480" y="604" type="line"/>
			<point x="518" y="614" type="line"/>
			<point x="508" y="785" type="line"/>
		</contour>
		<contour>
			<point x="112" y="765" type="line"/>
			<point x="40" y="785" type="line"/>
			<point x="30" y="614" type="line"/>
			<point x="68" y="604" type="line"/>
			<point x="112" y="730" type="line"/>
		</contour>
	</outline>
</glyph>
<glyph name="U" format="2">
	<advance width="601"/>
	<unicode hex="0055"/>
	<outline>
		<contour>
			<point x="98" y="180" type="line"/>
			<point x="178" y="161" type="line"/>
			<point x="178" y="744" type="line"/>
			<point x="98" y="744" type="line"/>
		</contour>
		<contour>
			<point x="419" y="161" type="line"/>
			<point x="499" y="180" type="line"/>
			<point x="499" y="744" type="line"/>
			<point x="419" y="744" type="line"/>
		</contour>
		<contour>
			<point x="499" y="181" type="curve"/>
			<point x="419" y="161" type="line"/>
			<point x="419" y="82"/>
			<point x="377" y="40"/>
			<point x="299" y="40" type="curve" smooth="yes"/>
			<point x="220" y="40"/>
			<point x="178" y="82"/>
			<point x="178" y="161" type="curve"/>
			<point x="98" y="181" type="line"/>
			<point x="98" y="50"/>
			<point x="168" y="-20"/>
			<point x="299" y="-20" type="curve" smooth="yes"/>
			<point x="429" y="-20"/>
			<point x="499" y="50"/>
		</contour>
		<contour>
			<point x="30" y="766" type="line"/>
			<point x="98" y="722" type="line"/>
			<point x="178" y="722" type="line"/>
			<point x="250" y="766" type="line"/>
			<point x="240" y="785" type="line"/>
			<point x="140" y="775" type="line"/>
			<point x="40" y="785" type="line"/>
		</contour>
		<contour>
			<point x="351" y="766" type="line"/>
			<point x="419" y="722" type="line"/>
			<point x="499" y="722" type="line"/>
			<point x="571" y="766" type="line"/>
			<point x="561" y="785" type="line"/>
			<point x="461" y="775" type="line"/>
			<point x="361" y="785" type="line"/>
		</contour>
	</outline>
</glyph>
<glyph name="V" format="2">
	<advance width="666"/>
	<unicode hex="0056"/>
	<outline>
		<contour>
			<point x="563" y="722" type="line"/>
			<point x="486" y="722" type="line"/>
			<point x="313" y="76" type="line"/>
			<point x="365" y="76" type="line"/>
			<point x="191" y="722" type="line"/>
			<point x="98" y="722" type="line"/>
			<point x="309" y="0" type="line"/>
			<point x="353" y="0" type="line"/>
		</contour>
		<contour>
			<point x="30" y="766" type="line"/>
			<point x="98" y="722" type="line"/>
			<point x="191" y="722" type="line"/>
			<point x="263" y="766" type="line"/>
			<point x="253" y="785" type="line"/>
			<point x="143" y="775" type="line"/>
			<point x="40" y="785" type="line"/>
		</contour>
		<contour>
			<point x="416" y="766" type="line"/>
			<point x="484" y="722" type="line"/>
			<point x="564" y="722" type="line"/>
			<point x="636" y="766" type="line"/>
			<point x="626" y="785" type="line"/>
			<point x="526" y="775" type="line"/>
			<point x="426" y="785" type="line"/>
		</contour>
	</outline>
</glyph>
<glyph name="W" format="2">
	<advance width="919"/>
	<unicode hex="0057"/>
	<outline>
		<contour>
			<point x="503" y="722" type="line"/>
			<point x="426" y="722" type="line"/>
			<point x="303" y="76" type="line"/>
			<point x="355" y="76" type="line"/>
			<point x="191" y="722" type="line"/>
			<point x="98" y="722" type="line"/>
			<point x="299" y="0" type="line"/>
			<point x="343" y="0" type="line"/>
		</contour>
		<contour>
			<point x="30" y="766" type="line"/>
			<point x="98" y="722" type="line"/>
			<point x="191" y="722" type="line"/>
			<point x="243" y="766" type="line"/>
			<point x="233" y="785" type="line"/>
			<point x="143" y="775" type="line"/>
			<point x="40" y="785" type="line"/>
		</contour>
		<contour>
			<point x="356" y="766" type="line"/>
			<point x="424" y="722" type="line"/>
			<point x="504" y="722" type="line"/>
			<point x="576" y="766" type="line"/>
			<point x="566" y="785" type="line"/>
			<point x="466" y="775" type="line"/>
			<point x="366" y="785" type="line"/>
		</contour>
		<contour>
			<point x="816" y="722" type="line"/>
			<point x="739" y="722" type="line"/>
			<point x="616" y="76" type="line"/>
			<point x="668" y="76" type="line"/>
			<point x="504" y="722" type="line"/>
			<point x="440" y="612" type="line"/>
			<point x="612" y="0" type="line"/>
			<point x="656" y="0" type="line"/>
		</contour>
		<contour>
			<point x="669" y="766" type="line"/>
			<point x="737" y="722" type="line"/>
			<point x="817" y="722" type="line"/>
			<point x="889" y="766" type="line"/>
			<point x="879" y="785" type="line"/>
			<point x="779" y="775" type="line"/>
			<point x="679" y="785" type="line"/>
		</contour>
	</outline>
</glyph>
<glyph name="X" format="2">
	<advance width="677"/>
	<unicode hex="0058"/>
	<outline>
		<contour>
			<point x="565" y="722" type="line"/>
			<point x="488" y="722" type="line"/>
			<point x="320" y="386" type="line"/>
			<point x="362" y="321" type="line"/>
		</contour>
		<contour>
			<point x="36" y="766" type="line"/>
			<point x="104" y="722" type="line"/>
			<point x="205" y="722" type="line"/>
			<point x="272" y="766" type="line"/>
			<point x="262" y="785" type="line"/>
			<point x="152" y="775" type="line"/>
			<point x="46" y="785" type="line"/>
		</contour>
		<contour>
			<point x="421" y="766" type="line"/>
			<point x="489" y="722" type="line"/>
			<point x="565" y="722" type="line"/>
			<point x="637" y="766" type="line"/>
			<point x="627" y="785" type="line"/>
			<point x="529" y="775" type="line"/>
			<point x="431" y="785" type="line"/>
		</contour>
		<contour>
			<point x="416" y="9" type="line"/>
			<point x="426" y="-10" type="line"/>
			<point x="529" y="0" type="line"/>
			<point x="637" y="-10" type="line"/>
			<point x="647" y="9" type="line"/>
			<point x="570" y="53" type="line"/>
			<point x="484" y="53" type="line"/>
		</contour>
		<contour>
			<point x="104" y="722" type="line"/>
			<point x="484" y="53" type="line"/>
			<point x="570" y="53" type="line"/>
			<point x="205" y="722" type="line"/>
		</contour>
		<contour>
			<point x="103" y="53" type="line"/>
			<point x="180" y="53" type="line"/>
			<point x="358" y="369" type="line"/>
			<point x="316" y="434" type="line"/>
		</contour>
		<contour>
			<point x="246" y="9" type="line"/>
			<point x="178" y="53" type="line"/>
			<point x="102" y="53" type="line"/>
			<point x="30" y="9" type="line"/>
			<point x="40" y="-10" type="line"/>
			<point x="138" y="0" type="line"/>
			<point x="236" y="-10" type="line"/>
		</contour>
	</outline>
</glyph>
<glyph name="Y" format="2">
	<advance width="666"/>
	<unicode hex="0059"/>
	<outline>
		<contour>
			<point x="563" y="722" type="line"/>
			<point x="486" y="722" type="line"/>
			<point x="322" y="272" type="line"/>
			<point x="368" y="272" type="line"/>
			<point x="189" y="722" type="line"/>
			<point x="98" y="722" type="line"/>
			<point x="314" y="196" type="line"/>
			<point x="358" y="196" type="line"/>
		</contour>
		<contour>
			<point x="30" y="766" type="line"/>
			<point x="98" y="722" type="line"/>
			<point x="189" y="722" type="line"/>
			<point x="261" y="766" type="line"/>
			<point x="251" y="785" type="line"/>
			<point x="141" y="775" type="line"/>
			<point x="40" y="785" type="line"/>
		</contour>
		<contour>
			<point x="420" y="766" type="line"/>
			<point x="488" y="722" type="line"/>
			<point x="564" y="722" type="line"/>
			<point x="636" y="766" type="line"/>
			<point x="626" y="785" type="line"/>
			<point x="528" y="775" type="line"/>
			<point x="430" y="785" type="line"/>
		</contour>
		<contour>
			<point x="296" y="252" type="line"/>
			<point x="296" y="0" type="line"/>
			<point x="376" y="0" type="line"/>
			<point x="376" y="252" type="line"/>
		</contour>
		<contour>
			<point x="228" y="9" type="line"/>
			<point x="238" y="-10" type="line"/>
			<point x="338" y="0" type="line"/>
			<point x="438" y="-10" type="line"/>
			<point x="448" y="9" type="line"/>
			<point x="376" y="53" type="line"/>
			<point x="296" y="53" type="line"/>
		</contour>
	</outline>
</glyph>
<glyph name="Z" format="2">
	<advance width="473"/>
	<unicode hex="005A"/>
	<outline>
		<contour>
			<point x="105" y="55" type="line"/>
			<point x="30" y="38" type="line"/>
			<point x="30" y="0" type="line"/>
			<point x="433" y="0" type="line"/>
			<point x="433" y="55" type="line"/>
		</contour>
		<contour>
			<point x="432" y="737" type="line"/>
			<point x="432" y="775" type="line"/>
			<point x="58" y="775" type="line"/>
			<point x="58" y="720" type="line"/>
			<point x="396" y="720" type="line"/>
		</contour>
		<contour>
			<point x="130" y="775" type="line"/>
			<point x="58" y="775" type="line"/>
			<point x="48" y="604" type="line"/>
			<point x="86" y="594" type="line"/>
			<point x="130" y="720" type="line"/>
		</contour>
		<contour>
			<point x="30" y="38" type="line"/>
			<point x="118" y="38" type="line"/>
			<point x="432" y="737" type="line"/>
			<point x="344" y="737" type="line"/>
		</contour>
		<contour>
			<point x="361" y="0" type="line"/>
			<point x="433" y="0" type="line"/>
			<point x="443" y="169" type="line"/>
			<point x="405" y="179" type="line"/>
			<point x="361" y="54" type="line"/>
		</contour>
	</outline>
</glyph>
